<svg xmlns="http://www.w3.org/2000/svg" viewBox="0 0 1200 1200">
<style>
:root {
  color-scheme: light dark;
  --genericJoeColor: #ebebeb;
  --musicNote: #DCDCDC; }

@media (prefers-color-scheme: dark) {
  :root {
    --genericJoeColor: #323232;
    --musicNote: #434343; } }
</style>
  <path fill="var(--genericJoeColor)" d="M0 0h1200v1200H0z"/>
  <path fill="var(--musicNote)" d="M778.64 295.11c-2.17.19-21.5 3.61-23.82 4.09l-266.48 53.88-.1.02c-6.98 1.49-12.44 3.94-16.68 7.49-5.1 4.27-7.92 10.3-9 17.34-.22 1.5-.6 4.54-.6 9.04v333.95c0 3.8-.04 7.22-.97 11a24.95 24.95 0 0 1-4.94 10 25.1 25.1 0 0 1-8.87 6.8c-3.54 1.65-6.9 2.37-10.64 3.12l-17.46 3.5c-22.1 4.44-37.42 7.44-50.45 12.47-12.44 4.81-21.76 10.94-29.19 18.68-14.7 15.34-20.08 36.17-18.02 55.67 1.76 16.64 8.66 32.56 21.58 44.34a67.5 67.5 0 0 0 32.46 16.57c13.33 2.67 27.52 1.73 48.25-2.43 11.05-2.21 21.4-5.68 31.26-11.47a79.14 79.14 0 0 0 24.85-22.66 82.86 82.86 0 0 0 13.11-30.73 154.3 154.3 0 0 0 3.31-33V514.26c0-15.54 4.08-19.63 16.62-22.66 0 0 222.78-44.77 233.13-46.79 14.48-2.78 20.72 1.35 20.72 16.5V660.4c0 3.81.3 7.24-.62 11.04-.9 3.67-1.81 7.07-4.24 10.03a25.1 25.1 0 0 1-8.87 6.82c-3.54 1.66-6.9 2.38-10.64 3.14l-17.46 3.51c-22.1 4.45-37.18 7.46-50.2 12.51-12.45 4.82-21.77 10.97-29.2 18.74a70.74 70.74 0 0 0-19.17 55.86c1.76 16.69 9.81 32.66 22.72 44.49A67.25 67.25 0 0 0 681.49 843c13.32 2.68 27.51 1.73 48.25-2.44 11.04-2.23 21.39-5.54 31.25-11.35a78.44 78.44 0 0 0 24.62-22.74 83.27 83.27 0 0 0 13.1-30.83c2.4-11.4 2.28-21.72 2.28-33.1V318.72c0-15.38-7.9-24.86-22.35-23.61"/>
</svg>
